G04 #@! TF.FileFunction,Copper,L1,Top,Signal*
%FSLAX46Y46*%
G04 Gerber Fmt 4.6, Leading zero omitted, Abs format (unit mm)*
G04 Created by KiCad (PCBNEW 4.0.4-stable) date 04/13/19 01:51:21*
%MOMM*%
%LPD*%
G01*
G04 APERTURE LIST*
%ADD10C,0.100000*%
%ADD11R,1.500000X1.250000*%
%ADD12R,1.250000X1.500000*%
%ADD13R,1.750000X1.750000*%
%ADD14C,1.750000*%
%ADD15R,10.541000X9.093200*%
%ADD16R,1.350000X1.800000*%
%ADD17O,1.350000X1.800000*%
%ADD18R,13.970000X13.970000*%
%ADD19R,2.500000X4.500000*%
%ADD20O,2.500000X4.500000*%
%ADD21R,6.350000X6.350000*%
%ADD22C,0.685800*%
%ADD23C,0.254000*%
%ADD24C,1.270000*%
%ADD25C,0.508000*%
%ADD26C,0.152400*%
G04 APERTURE END LIST*
D10*
D11*
X153142000Y-107696000D03*
X150642000Y-107696000D03*
D12*
X136652000Y-109962000D03*
X136652000Y-107462000D03*
D13*
X131064000Y-104648000D03*
D14*
X131064000Y-107148000D03*
D13*
X131064000Y-89916000D03*
D14*
X131064000Y-92416000D03*
D12*
X135890000Y-93746000D03*
X135890000Y-96246000D03*
D15*
X143608000Y-91036000D03*
D16*
X140208000Y-107696000D03*
D17*
X141908000Y-107696000D03*
X143608000Y-107696000D03*
X145308000Y-107696000D03*
X147008000Y-107696000D03*
D18*
X163565000Y-88090000D03*
D19*
X158115000Y-107950000D03*
D20*
X163565000Y-107950000D03*
X169015000Y-107950000D03*
D21*
X163068000Y-69088000D03*
X163068000Y-120396000D03*
X137668000Y-69088000D03*
X137668000Y-120396000D03*
D22*
X135636000Y-88392000D03*
X135636000Y-91440000D03*
X136144000Y-89916000D03*
X172720000Y-112776000D03*
X172720000Y-110744000D03*
X127508000Y-125476000D03*
X130048000Y-125476000D03*
X130048000Y-122936000D03*
X127508000Y-122936000D03*
X127508000Y-120396000D03*
X130048000Y-120396000D03*
X130048000Y-117856000D03*
X127508000Y-117856000D03*
X127508000Y-115316000D03*
X130048000Y-115316000D03*
X135128000Y-115316000D03*
X132588000Y-115316000D03*
X132588000Y-117856000D03*
X132588000Y-120396000D03*
X132588000Y-122936000D03*
X132588000Y-125476000D03*
X135128000Y-125476000D03*
X137668000Y-125476000D03*
X140208000Y-125476000D03*
X142748000Y-125476000D03*
X145288000Y-125476000D03*
X147828000Y-125476000D03*
X150368000Y-125476000D03*
X150368000Y-122936000D03*
X147828000Y-122936000D03*
X145288000Y-122936000D03*
X142748000Y-122936000D03*
X142748000Y-120396000D03*
X145288000Y-120396000D03*
X147828000Y-120396000D03*
X150368000Y-120396000D03*
X150368000Y-117856000D03*
X147828000Y-117856000D03*
X145288000Y-117856000D03*
X142748000Y-117856000D03*
X165608000Y-125476000D03*
X163068000Y-125476000D03*
X160528000Y-125476000D03*
X157988000Y-125476000D03*
X157988000Y-122936000D03*
X157988000Y-120396000D03*
X157988000Y-117856000D03*
X152908000Y-117856000D03*
X152908000Y-120396000D03*
X152908000Y-122936000D03*
X152908000Y-125476000D03*
X155448000Y-125476000D03*
X155448000Y-122936000D03*
X155448000Y-120396000D03*
X155448000Y-117856000D03*
X173228000Y-125476000D03*
X170688000Y-125476000D03*
X168148000Y-125476000D03*
X168148000Y-122936000D03*
X170688000Y-122936000D03*
X173228000Y-122936000D03*
X173228000Y-120396000D03*
X170688000Y-120396000D03*
X168148000Y-120396000D03*
X137668000Y-115316000D03*
X140208000Y-115316000D03*
X142748000Y-115316000D03*
X145288000Y-115316000D03*
X147828000Y-115316000D03*
X168148000Y-117856000D03*
X170688000Y-117856000D03*
X173228000Y-117856000D03*
X173228000Y-115316000D03*
X170688000Y-115316000D03*
X168148000Y-115316000D03*
X165608000Y-115316000D03*
X163068000Y-115316000D03*
X160528000Y-115316000D03*
X157988000Y-115316000D03*
X155448000Y-115316000D03*
X152908000Y-115316000D03*
X150368000Y-115316000D03*
X170688000Y-112776000D03*
X166624000Y-112776000D03*
X168656000Y-112776000D03*
X172720000Y-101092000D03*
X172720000Y-97028000D03*
X172720000Y-92964000D03*
X172720000Y-88900000D03*
X172720000Y-84836000D03*
X172720000Y-80772000D03*
X172720000Y-76708000D03*
X172720000Y-79248000D03*
X127508000Y-64008000D03*
X130048000Y-64008000D03*
X132588000Y-64008000D03*
X135128000Y-64008000D03*
X137668000Y-64008000D03*
X140208000Y-64008000D03*
X132588000Y-71628000D03*
X130048000Y-71628000D03*
X127508000Y-71628000D03*
X127508000Y-69088000D03*
X130048000Y-69088000D03*
X132588000Y-69088000D03*
X132588000Y-66548000D03*
X130048000Y-66548000D03*
X127508000Y-66548000D03*
X142748000Y-64008000D03*
X145288000Y-64008000D03*
X147828000Y-64008000D03*
X150368000Y-64008000D03*
X152908000Y-64008000D03*
X155448000Y-64008000D03*
X157988000Y-64008000D03*
X160528000Y-64008000D03*
X163068000Y-64008000D03*
X165608000Y-64008000D03*
X142748000Y-66548000D03*
X145288000Y-66548000D03*
X147828000Y-66548000D03*
X150368000Y-66548000D03*
X152908000Y-66548000D03*
X155448000Y-66548000D03*
X157988000Y-66548000D03*
X157988000Y-71628000D03*
X155448000Y-71628000D03*
X152908000Y-71628000D03*
X150368000Y-71628000D03*
X147828000Y-71628000D03*
X145288000Y-71628000D03*
X142748000Y-71628000D03*
X142748000Y-69088000D03*
X145288000Y-69088000D03*
X147828000Y-69088000D03*
X150368000Y-69088000D03*
X152908000Y-69088000D03*
X155448000Y-69088000D03*
X157988000Y-69088000D03*
X167132000Y-79248000D03*
X170688000Y-79248000D03*
X156464000Y-76708000D03*
X160020000Y-76708000D03*
X163576000Y-76708000D03*
X167132000Y-76708000D03*
X170688000Y-76708000D03*
X135128000Y-79248000D03*
X131572000Y-79248000D03*
X128016000Y-79248000D03*
X138684000Y-79248000D03*
X142240000Y-79248000D03*
X145796000Y-79248000D03*
X149352000Y-79248000D03*
X152908000Y-79248000D03*
X156464000Y-79248000D03*
X160020000Y-79248000D03*
X145796000Y-76708000D03*
X142240000Y-76708000D03*
X138684000Y-76708000D03*
X135128000Y-76708000D03*
X131572000Y-76708000D03*
X128016000Y-76708000D03*
X163576000Y-79248000D03*
X127508000Y-74168000D03*
X130048000Y-74168000D03*
X132588000Y-74168000D03*
X135128000Y-74168000D03*
X137668000Y-74168000D03*
X140208000Y-74168000D03*
X142748000Y-74168000D03*
X145288000Y-74168000D03*
X147828000Y-74168000D03*
X150368000Y-74168000D03*
X152908000Y-74168000D03*
X155448000Y-74168000D03*
X157988000Y-74168000D03*
X160528000Y-74168000D03*
X163068000Y-74168000D03*
X165608000Y-74168000D03*
X168148000Y-74168000D03*
X170688000Y-74168000D03*
X173228000Y-74168000D03*
X173228000Y-71628000D03*
X170688000Y-71628000D03*
X168148000Y-71628000D03*
X173228000Y-64008000D03*
X173228000Y-66548000D03*
X173228000Y-69088000D03*
X170688000Y-69088000D03*
X170688000Y-66548000D03*
X170688000Y-64008000D03*
X168148000Y-64008000D03*
X168148000Y-66548000D03*
X168148000Y-69088000D03*
X154432000Y-101092000D03*
X154432000Y-97028000D03*
X154432000Y-92964000D03*
X154432000Y-88900000D03*
X154432000Y-80772000D03*
X154432000Y-84836000D03*
X157480000Y-97028000D03*
X157480000Y-99060000D03*
X157480000Y-101092000D03*
X159512000Y-101092000D03*
X159512000Y-99060000D03*
X159512000Y-97028000D03*
X161544000Y-97028000D03*
X161544000Y-99060000D03*
X161544000Y-101092000D03*
X169672000Y-97028000D03*
X169672000Y-99060000D03*
X169672000Y-101092000D03*
X167640000Y-101092000D03*
X167640000Y-99060000D03*
X167640000Y-97028000D03*
X165608000Y-97028000D03*
X165608000Y-99060000D03*
X165608000Y-101092000D03*
X163576000Y-101092000D03*
X163576000Y-99060000D03*
X163576000Y-97028000D03*
D23*
X131064000Y-89916000D02*
X136144000Y-89916000D01*
X135636000Y-91440000D02*
X135636000Y-88392000D01*
X172720000Y-112776000D02*
X170688000Y-112776000D01*
X132588000Y-115316000D02*
X130048000Y-115316000D01*
X130048000Y-122936000D02*
X130048000Y-125476000D01*
X127508000Y-120396000D02*
X127508000Y-122936000D01*
X130048000Y-117856000D02*
X130048000Y-120396000D01*
X127508000Y-115316000D02*
X127508000Y-117856000D01*
X132588000Y-117856000D02*
X132588000Y-115316000D01*
X132588000Y-122936000D02*
X132588000Y-120396000D01*
X135128000Y-125476000D02*
X132588000Y-125476000D01*
X140208000Y-125476000D02*
X137668000Y-125476000D01*
X145288000Y-125476000D02*
X142748000Y-125476000D01*
X150368000Y-125476000D02*
X147828000Y-125476000D01*
X147828000Y-122936000D02*
X150368000Y-122936000D01*
X142748000Y-122936000D02*
X145288000Y-122936000D01*
X145288000Y-120396000D02*
X142748000Y-120396000D01*
X150368000Y-120396000D02*
X147828000Y-120396000D01*
X147828000Y-117856000D02*
X150368000Y-117856000D01*
X142748000Y-117856000D02*
X145288000Y-117856000D01*
X163068000Y-125476000D02*
X160528000Y-125476000D01*
X157988000Y-125476000D02*
X157988000Y-122936000D01*
X157988000Y-120396000D02*
X157988000Y-117856000D01*
X163068000Y-122936000D02*
X165608000Y-125476000D01*
X152908000Y-120396000D02*
X152908000Y-117856000D01*
X152908000Y-125476000D02*
X152908000Y-122936000D01*
X155448000Y-122936000D02*
X155448000Y-125476000D01*
X155448000Y-117856000D02*
X155448000Y-120396000D01*
X163068000Y-120396000D02*
X163068000Y-122936000D01*
X168148000Y-125476000D02*
X170688000Y-125476000D01*
X170688000Y-122936000D02*
X168148000Y-122936000D01*
X173228000Y-120396000D02*
X173228000Y-122936000D01*
X168148000Y-120396000D02*
X170688000Y-120396000D01*
X147828000Y-115316000D02*
X150368000Y-115316000D01*
X137668000Y-115316000D02*
X140208000Y-115316000D01*
X142748000Y-115316000D02*
X145288000Y-115316000D01*
X170688000Y-117856000D02*
X168148000Y-117856000D01*
X173228000Y-115316000D02*
X173228000Y-117856000D01*
X168148000Y-115316000D02*
X170688000Y-115316000D01*
X163068000Y-115316000D02*
X165608000Y-115316000D01*
X157988000Y-115316000D02*
X160528000Y-115316000D01*
X152908000Y-115316000D02*
X155448000Y-115316000D01*
X169015000Y-111103000D02*
X170688000Y-112776000D01*
X169015000Y-107950000D02*
X169015000Y-111103000D01*
X168656000Y-112776000D02*
X166624000Y-112776000D01*
D24*
X131064000Y-92416000D02*
X131064000Y-96774000D01*
X128992000Y-107148000D02*
X131064000Y-107148000D01*
X128270000Y-106426000D02*
X128992000Y-107148000D01*
X128270000Y-99568000D02*
X128270000Y-106426000D01*
X131064000Y-96774000D02*
X128270000Y-99568000D01*
D25*
X136652000Y-107462000D02*
X139974000Y-107462000D01*
X139974000Y-107462000D02*
X140208000Y-107696000D01*
X131064000Y-104648000D02*
X133838000Y-104648000D01*
X133838000Y-104648000D02*
X136652000Y-107462000D01*
D23*
X172720000Y-80772000D02*
X172720000Y-79248000D01*
X172720000Y-101092000D02*
X172720000Y-97028000D01*
X172720000Y-92964000D02*
X172720000Y-88900000D01*
X172720000Y-84836000D02*
X172720000Y-80772000D01*
X130048000Y-64008000D02*
X127508000Y-64008000D01*
X135128000Y-64008000D02*
X132588000Y-64008000D01*
X140208000Y-64008000D02*
X137668000Y-64008000D01*
X137668000Y-69088000D02*
X135128000Y-69088000D01*
X135128000Y-69088000D02*
X132588000Y-71628000D01*
X130048000Y-71628000D02*
X127508000Y-71628000D01*
X127508000Y-69088000D02*
X130048000Y-69088000D01*
X132588000Y-69088000D02*
X132588000Y-66548000D01*
X130048000Y-66548000D02*
X127508000Y-66548000D01*
X155448000Y-66548000D02*
X155448000Y-64008000D01*
X147828000Y-64008000D02*
X145288000Y-64008000D01*
X152908000Y-64008000D02*
X150368000Y-64008000D01*
X163068000Y-69088000D02*
X163068000Y-66548000D01*
X163068000Y-66548000D02*
X165608000Y-64008000D01*
X163068000Y-64008000D02*
X160528000Y-64008000D01*
X147828000Y-66548000D02*
X145288000Y-66548000D01*
X152908000Y-66548000D02*
X150368000Y-66548000D01*
X157988000Y-66548000D02*
X155448000Y-66548000D01*
X157988000Y-71628000D02*
X155448000Y-71628000D01*
X152908000Y-71628000D02*
X150368000Y-71628000D01*
X147828000Y-71628000D02*
X145288000Y-71628000D01*
X142748000Y-71628000D02*
X142748000Y-69088000D01*
X145288000Y-69088000D02*
X147828000Y-69088000D01*
X150368000Y-69088000D02*
X152908000Y-69088000D01*
X155448000Y-69088000D02*
X157988000Y-69088000D01*
X170688000Y-79248000D02*
X170688000Y-76708000D01*
X163576000Y-79248000D02*
X167132000Y-79248000D01*
X160020000Y-76708000D02*
X156464000Y-76708000D01*
X167132000Y-76708000D02*
X163576000Y-76708000D01*
X128016000Y-79248000D02*
X128016000Y-76708000D01*
X135128000Y-79248000D02*
X131572000Y-79248000D01*
X163576000Y-79248000D02*
X160020000Y-79248000D01*
X142240000Y-79248000D02*
X138684000Y-79248000D01*
X149352000Y-79248000D02*
X145796000Y-79248000D01*
X156464000Y-79248000D02*
X152908000Y-79248000D01*
X138684000Y-76708000D02*
X142240000Y-76708000D01*
X131572000Y-76708000D02*
X135128000Y-76708000D01*
X130048000Y-74168000D02*
X127508000Y-74168000D01*
X135128000Y-74168000D02*
X132588000Y-74168000D01*
X140208000Y-74168000D02*
X137668000Y-74168000D01*
X145288000Y-74168000D02*
X142748000Y-74168000D01*
X150368000Y-74168000D02*
X147828000Y-74168000D01*
X155448000Y-74168000D02*
X152908000Y-74168000D01*
X160528000Y-74168000D02*
X157988000Y-74168000D01*
X163068000Y-74168000D02*
X165608000Y-74168000D01*
X168148000Y-74168000D02*
X170688000Y-74168000D01*
X173228000Y-74168000D02*
X173228000Y-71628000D01*
X170688000Y-71628000D02*
X168148000Y-71628000D01*
X173228000Y-69088000D02*
X173228000Y-66548000D01*
X170688000Y-66548000D02*
X170688000Y-69088000D01*
X168148000Y-64008000D02*
X170688000Y-64008000D01*
X168148000Y-69088000D02*
X168148000Y-66548000D01*
X154432000Y-101092000D02*
X154432000Y-97028000D01*
X154432000Y-92964000D02*
X154432000Y-88900000D01*
X154432000Y-84836000D02*
X154432000Y-80772000D01*
X163576000Y-101092000D02*
X161544000Y-101092000D01*
X157480000Y-99060000D02*
X157480000Y-97028000D01*
X159512000Y-101092000D02*
X157480000Y-101092000D01*
X159512000Y-97028000D02*
X159512000Y-99060000D01*
X161544000Y-99060000D02*
X161544000Y-97028000D01*
X163565000Y-88090000D02*
X163565000Y-97017000D01*
X169672000Y-101092000D02*
X169672000Y-99060000D01*
X167640000Y-99060000D02*
X167640000Y-101092000D01*
X165608000Y-97028000D02*
X167640000Y-97028000D01*
X165608000Y-101092000D02*
X165608000Y-99060000D01*
X163576000Y-99060000D02*
X163576000Y-101092000D01*
X163565000Y-97017000D02*
X163576000Y-97028000D01*
D25*
X153142000Y-107696000D02*
X157861000Y-107696000D01*
X157861000Y-107696000D02*
X158115000Y-107950000D01*
X150642000Y-107696000D02*
X147008000Y-107696000D01*
D26*
G36*
X137083800Y-96520000D02*
X137089011Y-96547695D01*
X137105379Y-96573132D01*
X137130354Y-96590197D01*
X137160000Y-96596200D01*
X149860000Y-96596200D01*
X149887695Y-96590989D01*
X149913132Y-96574621D01*
X149930197Y-96549646D01*
X149936200Y-96520000D01*
X149936200Y-95580200D01*
X151307800Y-95580200D01*
X151307800Y-106786127D01*
X149892000Y-106786127D01*
X149788461Y-106805609D01*
X149693366Y-106866801D01*
X149629571Y-106960168D01*
X149607127Y-107071000D01*
X149607127Y-107162600D01*
X147905652Y-107162600D01*
X147889751Y-107082661D01*
X147682863Y-106773031D01*
X147373233Y-106566143D01*
X147008000Y-106493494D01*
X146642767Y-106566143D01*
X146333137Y-106773031D01*
X146126249Y-107082661D01*
X146053600Y-107447894D01*
X146053600Y-107944106D01*
X146126249Y-108309339D01*
X146333137Y-108618969D01*
X146642767Y-108825857D01*
X147008000Y-108898506D01*
X147373233Y-108825857D01*
X147682863Y-108618969D01*
X147889751Y-108309339D01*
X147905652Y-108229400D01*
X149607127Y-108229400D01*
X149607127Y-108321000D01*
X149626609Y-108424539D01*
X149687801Y-108519634D01*
X149781168Y-108583429D01*
X149892000Y-108605873D01*
X151307800Y-108605873D01*
X151307800Y-109220000D01*
X151313803Y-109249646D01*
X151330118Y-109273882D01*
X154886118Y-112829882D01*
X154911327Y-112846599D01*
X154940000Y-112852200D01*
X164084000Y-112852200D01*
X164113646Y-112846197D01*
X164137882Y-112829882D01*
X166677882Y-110289882D01*
X166694599Y-110264673D01*
X166700200Y-110236000D01*
X166700200Y-105187564D01*
X167163564Y-104724200D01*
X174626200Y-104724200D01*
X174626200Y-126366200D01*
X126109800Y-126366200D01*
X126109800Y-103773000D01*
X129904127Y-103773000D01*
X129904127Y-105523000D01*
X129923609Y-105626539D01*
X129984801Y-105721634D01*
X130078168Y-105785429D01*
X130189000Y-105807873D01*
X131939000Y-105807873D01*
X132042539Y-105788391D01*
X132137634Y-105727199D01*
X132201429Y-105633832D01*
X132223873Y-105523000D01*
X132223873Y-105181400D01*
X133617058Y-105181400D01*
X135742127Y-107306469D01*
X135742127Y-108212000D01*
X135761609Y-108315539D01*
X135822801Y-108410634D01*
X135916168Y-108474429D01*
X136027000Y-108496873D01*
X137277000Y-108496873D01*
X137380539Y-108477391D01*
X137475634Y-108416199D01*
X137539429Y-108322832D01*
X137561873Y-108212000D01*
X137561873Y-107995400D01*
X139248127Y-107995400D01*
X139248127Y-108596000D01*
X139267609Y-108699539D01*
X139328801Y-108794634D01*
X139422168Y-108858429D01*
X139533000Y-108880873D01*
X140883000Y-108880873D01*
X140986539Y-108861391D01*
X141081634Y-108800199D01*
X141145429Y-108706832D01*
X141167873Y-108596000D01*
X141167873Y-107447894D01*
X142653600Y-107447894D01*
X142653600Y-107944106D01*
X142726249Y-108309339D01*
X142933137Y-108618969D01*
X143242767Y-108825857D01*
X143608000Y-108898506D01*
X143973233Y-108825857D01*
X144282863Y-108618969D01*
X144489751Y-108309339D01*
X144562400Y-107944106D01*
X144562400Y-107447894D01*
X144489751Y-107082661D01*
X144282863Y-106773031D01*
X143973233Y-106566143D01*
X143608000Y-106493494D01*
X143242767Y-106566143D01*
X142933137Y-106773031D01*
X142726249Y-107082661D01*
X142653600Y-107447894D01*
X141167873Y-107447894D01*
X141167873Y-106796000D01*
X141148391Y-106692461D01*
X141087199Y-106597366D01*
X140993832Y-106533571D01*
X140883000Y-106511127D01*
X139533000Y-106511127D01*
X139429461Y-106530609D01*
X139334366Y-106591801D01*
X139270571Y-106685168D01*
X139248127Y-106796000D01*
X139248127Y-106928600D01*
X137561873Y-106928600D01*
X137561873Y-106712000D01*
X137542391Y-106608461D01*
X137481199Y-106513366D01*
X137387832Y-106449571D01*
X137277000Y-106427127D01*
X136371469Y-106427127D01*
X134215171Y-104270829D01*
X134042123Y-104155203D01*
X133838000Y-104114600D01*
X132223873Y-104114600D01*
X132223873Y-103773000D01*
X132204391Y-103669461D01*
X132143199Y-103574366D01*
X132049832Y-103510571D01*
X131939000Y-103488127D01*
X130189000Y-103488127D01*
X130085461Y-103507609D01*
X129990366Y-103568801D01*
X129926571Y-103662168D01*
X129904127Y-103773000D01*
X126109800Y-103773000D01*
X126109800Y-95580200D01*
X137083800Y-95580200D01*
X137083800Y-96520000D01*
X137083800Y-96520000D01*
G37*
X137083800Y-96520000D02*
X137089011Y-96547695D01*
X137105379Y-96573132D01*
X137130354Y-96590197D01*
X137160000Y-96596200D01*
X149860000Y-96596200D01*
X149887695Y-96590989D01*
X149913132Y-96574621D01*
X149930197Y-96549646D01*
X149936200Y-96520000D01*
X149936200Y-95580200D01*
X151307800Y-95580200D01*
X151307800Y-106786127D01*
X149892000Y-106786127D01*
X149788461Y-106805609D01*
X149693366Y-106866801D01*
X149629571Y-106960168D01*
X149607127Y-107071000D01*
X149607127Y-107162600D01*
X147905652Y-107162600D01*
X147889751Y-107082661D01*
X147682863Y-106773031D01*
X147373233Y-106566143D01*
X147008000Y-106493494D01*
X146642767Y-106566143D01*
X146333137Y-106773031D01*
X146126249Y-107082661D01*
X146053600Y-107447894D01*
X146053600Y-107944106D01*
X146126249Y-108309339D01*
X146333137Y-108618969D01*
X146642767Y-108825857D01*
X147008000Y-108898506D01*
X147373233Y-108825857D01*
X147682863Y-108618969D01*
X147889751Y-108309339D01*
X147905652Y-108229400D01*
X149607127Y-108229400D01*
X149607127Y-108321000D01*
X149626609Y-108424539D01*
X149687801Y-108519634D01*
X149781168Y-108583429D01*
X149892000Y-108605873D01*
X151307800Y-108605873D01*
X151307800Y-109220000D01*
X151313803Y-109249646D01*
X151330118Y-109273882D01*
X154886118Y-112829882D01*
X154911327Y-112846599D01*
X154940000Y-112852200D01*
X164084000Y-112852200D01*
X164113646Y-112846197D01*
X164137882Y-112829882D01*
X166677882Y-110289882D01*
X166694599Y-110264673D01*
X166700200Y-110236000D01*
X166700200Y-105187564D01*
X167163564Y-104724200D01*
X174626200Y-104724200D01*
X174626200Y-126366200D01*
X126109800Y-126366200D01*
X126109800Y-103773000D01*
X129904127Y-103773000D01*
X129904127Y-105523000D01*
X129923609Y-105626539D01*
X129984801Y-105721634D01*
X130078168Y-105785429D01*
X130189000Y-105807873D01*
X131939000Y-105807873D01*
X132042539Y-105788391D01*
X132137634Y-105727199D01*
X132201429Y-105633832D01*
X132223873Y-105523000D01*
X132223873Y-105181400D01*
X133617058Y-105181400D01*
X135742127Y-107306469D01*
X135742127Y-108212000D01*
X135761609Y-108315539D01*
X135822801Y-108410634D01*
X135916168Y-108474429D01*
X136027000Y-108496873D01*
X137277000Y-108496873D01*
X137380539Y-108477391D01*
X137475634Y-108416199D01*
X137539429Y-108322832D01*
X137561873Y-108212000D01*
X137561873Y-107995400D01*
X139248127Y-107995400D01*
X139248127Y-108596000D01*
X139267609Y-108699539D01*
X139328801Y-108794634D01*
X139422168Y-108858429D01*
X139533000Y-108880873D01*
X140883000Y-108880873D01*
X140986539Y-108861391D01*
X141081634Y-108800199D01*
X141145429Y-108706832D01*
X141167873Y-108596000D01*
X141167873Y-107447894D01*
X142653600Y-107447894D01*
X142653600Y-107944106D01*
X142726249Y-108309339D01*
X142933137Y-108618969D01*
X143242767Y-108825857D01*
X143608000Y-108898506D01*
X143973233Y-108825857D01*
X144282863Y-108618969D01*
X144489751Y-108309339D01*
X144562400Y-107944106D01*
X144562400Y-107447894D01*
X144489751Y-107082661D01*
X144282863Y-106773031D01*
X143973233Y-106566143D01*
X143608000Y-106493494D01*
X143242767Y-106566143D01*
X142933137Y-106773031D01*
X142726249Y-107082661D01*
X142653600Y-107447894D01*
X141167873Y-107447894D01*
X141167873Y-106796000D01*
X141148391Y-106692461D01*
X141087199Y-106597366D01*
X140993832Y-106533571D01*
X140883000Y-106511127D01*
X139533000Y-106511127D01*
X139429461Y-106530609D01*
X139334366Y-106591801D01*
X139270571Y-106685168D01*
X139248127Y-106796000D01*
X139248127Y-106928600D01*
X137561873Y-106928600D01*
X137561873Y-106712000D01*
X137542391Y-106608461D01*
X137481199Y-106513366D01*
X137387832Y-106449571D01*
X137277000Y-106427127D01*
X136371469Y-106427127D01*
X134215171Y-104270829D01*
X134042123Y-104155203D01*
X133838000Y-104114600D01*
X132223873Y-104114600D01*
X132223873Y-103773000D01*
X132204391Y-103669461D01*
X132143199Y-103574366D01*
X132049832Y-103510571D01*
X131939000Y-103488127D01*
X130189000Y-103488127D01*
X130085461Y-103507609D01*
X129990366Y-103568801D01*
X129926571Y-103662168D01*
X129904127Y-103773000D01*
X126109800Y-103773000D01*
X126109800Y-95580200D01*
X137083800Y-95580200D01*
X137083800Y-96520000D01*
G36*
X174626200Y-103555800D02*
X166116000Y-103555800D01*
X166086354Y-103561803D01*
X166062118Y-103578118D01*
X165554118Y-104086118D01*
X165537401Y-104111327D01*
X165531800Y-104140000D01*
X165531800Y-109696436D01*
X163544436Y-111683800D01*
X161067564Y-111683800D01*
X160604200Y-111220436D01*
X160604200Y-104648000D01*
X160598197Y-104618354D01*
X160581882Y-104594118D01*
X160073882Y-104086118D01*
X160048673Y-104069401D01*
X160020000Y-104063800D01*
X152939564Y-104063800D01*
X152476200Y-103600436D01*
X152476200Y-84328000D01*
X152470197Y-84298354D01*
X152453882Y-84274118D01*
X151945882Y-83766118D01*
X151920673Y-83749401D01*
X151892000Y-83743800D01*
X126109800Y-83743800D01*
X126109800Y-63117800D01*
X174626200Y-63117800D01*
X174626200Y-103555800D01*
X174626200Y-103555800D01*
G37*
X174626200Y-103555800D02*
X166116000Y-103555800D01*
X166086354Y-103561803D01*
X166062118Y-103578118D01*
X165554118Y-104086118D01*
X165537401Y-104111327D01*
X165531800Y-104140000D01*
X165531800Y-109696436D01*
X163544436Y-111683800D01*
X161067564Y-111683800D01*
X160604200Y-111220436D01*
X160604200Y-104648000D01*
X160598197Y-104618354D01*
X160581882Y-104594118D01*
X160073882Y-104086118D01*
X160048673Y-104069401D01*
X160020000Y-104063800D01*
X152939564Y-104063800D01*
X152476200Y-103600436D01*
X152476200Y-84328000D01*
X152470197Y-84298354D01*
X152453882Y-84274118D01*
X151945882Y-83766118D01*
X151920673Y-83749401D01*
X151892000Y-83743800D01*
X126109800Y-83743800D01*
X126109800Y-63117800D01*
X174626200Y-63117800D01*
X174626200Y-103555800D01*
G36*
X151307800Y-85375564D02*
X151307800Y-94411800D01*
X131978400Y-94411800D01*
X131978400Y-93134340D01*
X132042082Y-93070769D01*
X132218199Y-92646632D01*
X132218600Y-92187383D01*
X132043223Y-91762939D01*
X131718769Y-91437918D01*
X131294632Y-91261801D01*
X130835383Y-91261400D01*
X130410939Y-91436777D01*
X130085918Y-91761231D01*
X129909801Y-92185368D01*
X129909400Y-92644617D01*
X130084777Y-93069061D01*
X130149600Y-93133997D01*
X130149600Y-94411800D01*
X126109800Y-94411800D01*
X126109800Y-84912200D01*
X150844436Y-84912200D01*
X151307800Y-85375564D01*
X151307800Y-85375564D01*
G37*
X151307800Y-85375564D02*
X151307800Y-94411800D01*
X131978400Y-94411800D01*
X131978400Y-93134340D01*
X132042082Y-93070769D01*
X132218199Y-92646632D01*
X132218600Y-92187383D01*
X132043223Y-91762939D01*
X131718769Y-91437918D01*
X131294632Y-91261801D01*
X130835383Y-91261400D01*
X130410939Y-91436777D01*
X130085918Y-91761231D01*
X129909801Y-92185368D01*
X129909400Y-92644617D01*
X130084777Y-93069061D01*
X130149600Y-93133997D01*
X130149600Y-94411800D01*
X126109800Y-94411800D01*
X126109800Y-84912200D01*
X150844436Y-84912200D01*
X151307800Y-85375564D01*
M02*
