M48
;DRILL file {KiCad 4.0.4-stable} date 04/13/19 01:51:24
;FORMAT={-:-/ absolute / inch / decimal}
FMAT,2
INCH,TZ
T1C0.013
T2C0.040
T3C0.041
T4C0.070
T5C0.156
T6C0.205
T7C0.240
%
G90
G05
M72
T1
X5.02Y-2.52
X5.02Y-2.62
X5.02Y-2.72
X5.02Y-2.82
X5.02Y-2.92
X5.02Y-4.54
X5.02Y-4.64
X5.02Y-4.74
X5.02Y-4.84
X5.02Y-4.94
X5.04Y-3.02
X5.04Y-3.12
X5.12Y-2.52
X5.12Y-2.62
X5.12Y-2.72
X5.12Y-2.82
X5.12Y-2.92
X5.12Y-4.54
X5.12Y-4.64
X5.12Y-4.74
X5.12Y-4.84
X5.12Y-4.94
X5.18Y-3.02
X5.18Y-3.12
X5.22Y-2.52
X5.22Y-2.62
X5.22Y-2.72
X5.22Y-2.82
X5.22Y-2.92
X5.22Y-4.54
X5.22Y-4.64
X5.22Y-4.74
X5.22Y-4.84
X5.22Y-4.94
X5.32Y-2.52
X5.32Y-2.92
X5.32Y-3.02
X5.32Y-3.12
X5.32Y-4.54
X5.32Y-4.94
X5.34Y-3.48
X5.34Y-3.6
X5.36Y-3.54
X5.42Y-2.52
X5.42Y-2.92
X5.42Y-4.54
X5.42Y-4.94
X5.46Y-3.02
X5.46Y-3.12
X5.52Y-2.52
X5.52Y-2.92
X5.52Y-4.54
X5.52Y-4.94
X5.6Y-3.02
X5.6Y-3.12
X5.62Y-2.52
X5.62Y-2.62
X5.62Y-2.72
X5.62Y-2.82
X5.62Y-2.92
X5.62Y-4.54
X5.62Y-4.64
X5.62Y-4.74
X5.62Y-4.84
X5.62Y-4.94
X5.72Y-2.52
X5.72Y-2.62
X5.72Y-2.72
X5.72Y-2.82
X5.72Y-2.92
X5.72Y-4.54
X5.72Y-4.64
X5.72Y-4.74
X5.72Y-4.84
X5.72Y-4.94
X5.74Y-3.02
X5.74Y-3.12
X5.82Y-2.52
X5.82Y-2.62
X5.82Y-2.72
X5.82Y-2.82
X5.82Y-2.92
X5.82Y-4.54
X5.82Y-4.64
X5.82Y-4.74
X5.82Y-4.84
X5.82Y-4.94
X5.88Y-3.12
X5.92Y-2.52
X5.92Y-2.62
X5.92Y-2.72
X5.92Y-2.82
X5.92Y-2.92
X5.92Y-4.54
X5.92Y-4.64
X5.92Y-4.74
X5.92Y-4.84
X5.92Y-4.94
X6.02Y-2.52
X6.02Y-2.62
X6.02Y-2.72
X6.02Y-2.82
X6.02Y-2.92
X6.02Y-3.12
X6.02Y-4.54
X6.02Y-4.64
X6.02Y-4.74
X6.02Y-4.84
X6.02Y-4.94
X6.08Y-3.18
X6.08Y-3.34
X6.08Y-3.5
X6.08Y-3.66
X6.08Y-3.82
X6.08Y-3.98
X6.12Y-2.52
X6.12Y-2.62
X6.12Y-2.72
X6.12Y-2.82
X6.12Y-2.92
X6.12Y-4.54
X6.12Y-4.64
X6.12Y-4.74
X6.12Y-4.84
X6.12Y-4.94
X6.16Y-3.02
X6.16Y-3.12
X6.2Y-3.82
X6.2Y-3.9
X6.2Y-3.98
X6.22Y-2.52
X6.22Y-2.62
X6.22Y-2.72
X6.22Y-2.82
X6.22Y-2.92
X6.22Y-4.54
X6.22Y-4.64
X6.22Y-4.74
X6.22Y-4.84
X6.22Y-4.94
X6.28Y-3.82
X6.28Y-3.9
X6.28Y-3.98
X6.3Y-3.02
X6.3Y-3.12
X6.32Y-2.52
X6.32Y-2.92
X6.32Y-4.54
X6.32Y-4.94
X6.36Y-3.82
X6.36Y-3.9
X6.36Y-3.98
X6.42Y-2.52
X6.42Y-2.92
X6.42Y-4.54
X6.42Y-4.94
X6.44Y-3.02
X6.44Y-3.12
X6.44Y-3.82
X6.44Y-3.9
X6.44Y-3.98
X6.52Y-2.52
X6.52Y-2.92
X6.52Y-3.82
X6.52Y-3.9
X6.52Y-3.98
X6.52Y-4.54
X6.52Y-4.94
X6.56Y-4.44
X6.58Y-3.02
X6.58Y-3.12
X6.6Y-3.82
X6.6Y-3.9
X6.6Y-3.98
X6.62Y-2.52
X6.62Y-2.62
X6.62Y-2.72
X6.62Y-2.82
X6.62Y-2.92
X6.62Y-4.54
X6.62Y-4.64
X6.62Y-4.74
X6.62Y-4.84
X6.62Y-4.94
X6.64Y-4.44
X6.68Y-3.82
X6.68Y-3.9
X6.68Y-3.98
X6.72Y-2.52
X6.72Y-2.62
X6.72Y-2.72
X6.72Y-2.82
X6.72Y-2.92
X6.72Y-3.02
X6.72Y-3.12
X6.72Y-4.44
X6.72Y-4.54
X6.72Y-4.64
X6.72Y-4.74
X6.72Y-4.84
X6.72Y-4.94
X6.8Y-3.02
X6.8Y-3.12
X6.8Y-3.18
X6.8Y-3.34
X6.8Y-3.5
X6.8Y-3.66
X6.8Y-3.82
X6.8Y-3.98
X6.8Y-4.36
X6.8Y-4.44
X6.82Y-2.52
X6.82Y-2.62
X6.82Y-2.72
X6.82Y-2.82
X6.82Y-2.92
X6.82Y-4.54
X6.82Y-4.64
X6.82Y-4.74
X6.82Y-4.84
X6.82Y-4.94
T2
X5.52Y-4.24
X5.5869Y-4.24
X5.6539Y-4.24
X5.7208Y-4.24
X5.7877Y-4.24
T3
X5.16Y-3.54
X5.16Y-3.6384
X5.16Y-4.12
X5.16Y-4.2184
T4
X6.225Y-4.25
X6.4396Y-4.25
X6.6541Y-4.25
T5
X5.6539Y-3.5841
T6
X5.42Y-2.72
X5.42Y-4.74
X6.42Y-2.72
X6.42Y-4.74
T7
X6.4396Y-3.4681
T0
M30
